<?xml version="1.0" standalone="no"?>
<!DOCTYPE svg PUBLIC "-//W3C//DTD SVG 20010904//EN"
 "http://www.w3.org/TR/2001/REC-SVG-20010904/DTD/svg10.dtd">
<svg version="1.0" xmlns="http://www.w3.org/2000/svg"
 width="150.000000pt" height="100.000000pt" viewBox="0 0 150.000000 100.000000"
 preserveAspectRatio="xMidYMid meet">

<g transform="translate(0.000000,100.000000) scale(0.100000,-0.100000)"
fill="#000000" stroke="none">
<path d="M43 613 c-55 -5 -61 -33 -8 -33 l35 0 0 -90 0 -90 30 0 c27 0 30 3
30 30 0 26 4 30 28 30 20 0 32 -8 45 -30 15 -25 25 -30 56 -30 21 0 59 -3 85
-6 l46 -7 0 68 0 67 51 -62 52 -61 86 0 c47 1 105 -1 129 -5 56 -8 88 1 108
32 25 37 7 70 -48 85 -24 7 -50 18 -58 26 -23 21 5 35 56 28 32 -5 43 -2 48
10 8 22 -39 38 -89 30 -22 -4 -47 -6 -55 -5 -8 0 -52 3 -97 6 l-82 5 -3 -66
-3 -66 -50 65 -50 65 -70 0 c-38 1 -106 3 -150 5 -44 2 -99 2 -122 -1z m593
-56 c6 -7 14 -24 18 -40 9 -39 -30 -77 -79 -77 l-35 0 0 71 0 72 43 -7 c23 -4
47 -12 53 -19z m-418 -16 c4 -29 -12 -41 -55 -41 -31 0 -33 2 -33 36 l0 35 43
-3 c36 -3 43 -7 45 -27z m122 4 c0 -22 -4 -25 -35 -25 -31 0 -35 3 -35 25 0
22 4 25 35 25 31 0 35 -3 35 -25z m-2 -87 c-4 -30 -61 -38 -89 -12 -27 24 -15
34 42 34 47 0 50 -2 47 -22z m435 3 c17 -17 -4 -31 -44 -31 -40 0 -44 5 -33
35 5 13 14 15 38 11 17 -4 34 -10 39 -15z"/>
<path d="M963 591 c-38 -24 -53 -49 -53 -91 0 -42 23 -84 55 -98 38 -18 99
-15 125 6 20 16 21 19 6 31 -13 11 -20 11 -28 3 -17 -17 -60 -15 -86 4 -26 18
-30 74 -6 98 24 25 61 30 88 12 22 -14 26 -14 37 0 34 41 -81 71 -138 35z"/>
<path d="M1180 592 c-40 -20 -66 -75 -56 -118 4 -15 20 -39 36 -55 61 -61 180
-26 196 57 18 98 -82 164 -176 116z m105 -47 c46 -45 19 -115 -44 -115 -33 0
-71 39 -71 72 0 25 44 68 70 68 12 0 32 -11 45 -25z"/>
<path d="M850 435 c-18 -21 -5 -47 22 -43 26 3 37 36 16 49 -18 12 -24 11 -38
-6z"/>
</g>
</svg>
